<svg width="79" height="36" viewBox="0 0 79 36" fill="none" xmlns="http://www.w3.org/2000/svg">
<path d="M0.673706 35V0.0909119H23.7873V6.17614H8.05439V14.4943H22.2533V20.5795H8.05439V35H0.673706Z" fill="#0C0C0C"/>
<path d="M38.5231 35.5114C35.8754 35.5114 33.5856 34.9489 31.6538 33.8239C29.7334 32.6875 28.2504 31.108 27.205 29.0852C26.1595 27.0511 25.6368 24.6932 25.6368 22.0114C25.6368 19.3068 26.1595 16.9432 27.205 14.9205C28.2504 12.8864 29.7334 11.3068 31.6538 10.1818C33.5856 9.04546 35.8754 8.47728 38.5231 8.47728C41.1709 8.47728 43.455 9.04546 45.3754 10.1818C47.3072 11.3068 48.7959 12.8864 49.8413 14.9205C50.8868 16.9432 51.4095 19.3068 51.4095 22.0114C51.4095 24.6932 50.8868 27.0511 49.8413 29.0852C48.7959 31.108 47.3072 32.6875 45.3754 33.8239C43.455 34.9489 41.1709 35.5114 38.5231 35.5114ZM38.5572 29.8864C39.7618 29.8864 40.7675 29.5455 41.5743 28.8636C42.3811 28.1705 42.989 27.2273 43.3981 26.0341C43.8186 24.8409 44.0288 23.483 44.0288 21.9602C44.0288 20.4375 43.8186 19.0795 43.3981 17.8864C42.989 16.6932 42.3811 15.75 41.5743 15.0568C40.7675 14.3636 39.7618 14.017 38.5572 14.017C37.3413 14.017 36.3186 14.3636 35.489 15.0568C34.6709 15.75 34.0515 16.6932 33.6311 17.8864C33.222 19.0795 33.0175 20.4375 33.0175 21.9602C33.0175 23.483 33.222 24.8409 33.6311 26.0341C34.0515 27.2273 34.6709 28.1705 35.489 28.8636C36.3186 29.5455 37.3413 29.8864 38.5572 29.8864Z" fill="#0C0C0C"/>
<path d="M61.2618 8.81818L66.0686 17.9716L70.9947 8.81818H78.4436L70.8584 21.9091L78.6481 35H71.2334L66.0686 25.9489L60.989 35H53.489L61.2618 21.9091L53.7618 8.81818H61.2618Z" fill="#0C0C0C"/>
</svg>
